<svg width="187" height="64" viewBox="0 0 187 64" fill="none" xmlns="http://www.w3.org/2000/svg">
<g filter="url(#filter0_d_62863_869)">
<mask id="path-1-outside-1_62863_869" maskUnits="userSpaceOnUse" x="4" y="0" width="179" height="56" fill="black">
<rect fill="white" x="4" width="179" height="56"/>
<path d="M13.7653 25.3826L16.4107 24.0738L20.592 17.7919L21.872 17.2685L23.2374 23.6376L21.4454 23.8993L20.08 21.2819L19.056 25.3826H23.5787L28.272 26.604L30.1494 25.3826L33.3067 28.698L34.672 22.5906L36.8907 24.8591L38.256 22.9396L40.4747 22.3289L43.7174 19.2752L44.2294 17.7919L46.8747 18.2282L47.9841 19.7114L46.0214 23.8993L50.8854 21.3691V20.1476L52.7627 19.7114L54.8107 21.8054L56.8587 19.2752V17.5302L60.1867 15.1745L61.5521 13.1678H63.6854L67.4401 5.40268L70.6828 2L71.8774 3.91946L70.0001 6.36242L70.6828 7.93289L72.4748 8.28188L73.9254 14.7383V20.1476L76.4854 23.7248L77.7654 28.698L73.3281 25.8188L71.3654 17.5302L70.1707 17.7919L70.0001 23.3758L66.7574 28.698L65.8187 36.8121L68.0374 37.3356L68.9761 36.2013L71.1094 38.6443L72.7307 45.9732L72.5601 50.6846H70.5121L69.7441 44.0537L68.2934 46.0604L65.1361 45.3624L62.5761 43.1812L59.6747 44.2282L59.8454 48.9396L57.5414 49.5503L54.1281 52.1678L50.0321 51.6443L48.4107 50.6846L45.8507 51.1208L46.7041 52.1678L44.6561 53.3893L43.0347 52.604L39.9627 54L35.2694 51.6443L33.4774 47.4564L31.9414 47.6309L30.1494 46.1477L30.064 45.0134L24.3467 44.4027L23.408 47.5436L19.824 45.8859L18.032 42.8322H14.192L13.7653 47.7181L11.5467 48.4161L10.4373 52.8658L9.584 52.0805L6 42.745L10.2667 40.651L9.584 36.5503L8.90134 32.3624L10.7787 29.6577L10.1813 28L12.7413 25.2081L13.7653 25.3826ZM70.5121 35.6779L74.4374 41.6107L75.7174 41.0872L74.0961 38.6443L70.5121 34.8054V35.6779ZM30.4054 23.6376V21.8926L33.392 19.7114L35.952 18.4027H32.9654L30.32 19.9732L28.6987 21.4564V23.6376H30.4054Z"/>
<path d="M95.8314 43.0004H100.555V37.8186H103.171C107.138 37.8186 109.797 35.4749 109.797 31.7164C109.797 28.0004 107.206 25.5459 103.341 25.5459H95.8314V43.0004ZM100.555 34.1368V29.33H102.22C103.876 29.33 104.87 30.2164 104.87 31.7164C104.87 33.2078 103.876 34.1368 102.22 34.1368H100.555Z"/>
<path d="M117.604 43.2391C121.851 43.2391 124.366 40.5118 124.366 36.4891C124.366 32.4664 121.851 29.7391 117.604 29.7391C113.356 29.7391 110.842 32.4664 110.842 36.4891C110.842 40.5118 113.356 43.2391 117.604 43.2391ZM117.638 39.7618C116.381 39.7618 115.633 38.509 115.633 36.455C115.633 34.401 116.381 33.1482 117.638 33.1482C118.827 33.1482 119.575 34.401 119.575 36.455C119.575 38.509 118.827 39.7618 117.638 39.7618Z"/>
<path d="M132.555 43.2391C136.42 43.2391 138.79 41.0146 138.841 37.5459H134.492C134.39 38.9181 133.651 39.6595 132.623 39.6595C131.391 39.6595 130.584 38.6027 130.584 36.455C130.584 34.3073 131.391 33.2504 132.623 33.2504C133.659 33.2504 134.364 33.9919 134.492 35.3641H138.841C138.816 31.955 136.395 29.7391 132.555 29.7391C128.308 29.7391 125.793 32.4664 125.793 36.4891C125.793 40.5118 128.308 43.2391 132.555 43.2391Z"/>
<path d="M147.062 43.2391C150.928 43.2391 153.298 41.0146 153.349 37.5459H148.999C148.897 38.9181 148.158 39.6595 147.13 39.6595C145.899 39.6595 145.092 38.6027 145.092 36.455C145.092 34.3073 145.899 33.2504 147.13 33.2504C148.167 33.2504 148.872 33.9919 148.999 35.3641H153.349C153.323 31.955 150.902 29.7391 147.062 29.7391C142.815 29.7391 140.3 32.4664 140.3 36.4891C140.3 40.5118 142.815 43.2391 147.062 43.2391Z"/>
<path d="M159.701 37.0004V29.9095H155.283V43.0004H159.701L163.337 35.8754V43.0004H167.754V29.9095H163.337L159.701 37.0004Z"/>
<path d="M177.651 43.0004H182V29.9095H175.884C172.12 29.9095 169.742 31.8186 169.767 34.4777C169.75 35.9692 170.642 37.205 172.205 37.9379L169.631 43.0004H173.947L176.147 38.6709H177.651V43.0004ZM177.651 35.8414H175.986C174.737 35.8414 174.159 35.2277 174.185 34.6482C174.159 34.1027 174.703 33.4209 175.884 33.4209H177.651V35.8414Z"/>
</mask>
<path d="M13.7653 25.3826L16.4107 24.0738L20.592 17.7919L21.872 17.2685L23.2374 23.6376L21.4454 23.8993L20.08 21.2819L19.056 25.3826H23.5787L28.272 26.604L30.1494 25.3826L33.3067 28.698L34.672 22.5906L36.8907 24.8591L38.256 22.9396L40.4747 22.3289L43.7174 19.2752L44.2294 17.7919L46.8747 18.2282L47.9841 19.7114L46.0214 23.8993L50.8854 21.3691V20.1476L52.7627 19.7114L54.8107 21.8054L56.8587 19.2752V17.5302L60.1867 15.1745L61.5521 13.1678H63.6854L67.4401 5.40268L70.6828 2L71.8774 3.91946L70.0001 6.36242L70.6828 7.93289L72.4748 8.28188L73.9254 14.7383V20.1476L76.4854 23.7248L77.7654 28.698L73.3281 25.8188L71.3654 17.5302L70.1707 17.7919L70.0001 23.3758L66.7574 28.698L65.8187 36.8121L68.0374 37.3356L68.9761 36.2013L71.1094 38.6443L72.7307 45.9732L72.5601 50.6846H70.5121L69.7441 44.0537L68.2934 46.0604L65.1361 45.3624L62.5761 43.1812L59.6747 44.2282L59.8454 48.9396L57.5414 49.5503L54.1281 52.1678L50.0321 51.6443L48.4107 50.6846L45.8507 51.1208L46.7041 52.1678L44.6561 53.3893L43.0347 52.604L39.9627 54L35.2694 51.6443L33.4774 47.4564L31.9414 47.6309L30.1494 46.1477L30.064 45.0134L24.3467 44.4027L23.408 47.5436L19.824 45.8859L18.032 42.8322H14.192L13.7653 47.7181L11.5467 48.4161L10.4373 52.8658L9.584 52.0805L6 42.745L10.2667 40.651L9.584 36.5503L8.90134 32.3624L10.7787 29.6577L10.1813 28L12.7413 25.2081L13.7653 25.3826ZM70.5121 35.6779L74.4374 41.6107L75.7174 41.0872L74.0961 38.6443L70.5121 34.8054V35.6779ZM30.4054 23.6376V21.8926L33.392 19.7114L35.952 18.4027H32.9654L30.32 19.9732L28.6987 21.4564V23.6376H30.4054Z" fill="white"/>
<path d="M95.8314 43.0004H100.555V37.8186H103.171C107.138 37.8186 109.797 35.4749 109.797 31.7164C109.797 28.0004 107.206 25.5459 103.341 25.5459H95.8314V43.0004ZM100.555 34.1368V29.33H102.22C103.876 29.33 104.87 30.2164 104.87 31.7164C104.87 33.2078 103.876 34.1368 102.22 34.1368H100.555Z" fill="white"/>
<path d="M117.604 43.2391C121.851 43.2391 124.366 40.5118 124.366 36.4891C124.366 32.4664 121.851 29.7391 117.604 29.7391C113.356 29.7391 110.842 32.4664 110.842 36.4891C110.842 40.5118 113.356 43.2391 117.604 43.2391ZM117.638 39.7618C116.381 39.7618 115.633 38.509 115.633 36.455C115.633 34.401 116.381 33.1482 117.638 33.1482C118.827 33.1482 119.575 34.401 119.575 36.455C119.575 38.509 118.827 39.7618 117.638 39.7618Z" fill="white"/>
<path d="M132.555 43.2391C136.42 43.2391 138.79 41.0146 138.841 37.5459H134.492C134.39 38.9181 133.651 39.6595 132.623 39.6595C131.391 39.6595 130.584 38.6027 130.584 36.455C130.584 34.3073 131.391 33.2504 132.623 33.2504C133.659 33.2504 134.364 33.9919 134.492 35.3641H138.841C138.816 31.955 136.395 29.7391 132.555 29.7391C128.308 29.7391 125.793 32.4664 125.793 36.4891C125.793 40.5118 128.308 43.2391 132.555 43.2391Z" fill="white"/>
<path d="M147.062 43.2391C150.928 43.2391 153.298 41.0146 153.349 37.5459H148.999C148.897 38.9181 148.158 39.6595 147.13 39.6595C145.899 39.6595 145.092 38.6027 145.092 36.455C145.092 34.3073 145.899 33.2504 147.13 33.2504C148.167 33.2504 148.872 33.9919 148.999 35.3641H153.349C153.323 31.955 150.902 29.7391 147.062 29.7391C142.815 29.7391 140.3 32.4664 140.3 36.4891C140.3 40.5118 142.815 43.2391 147.062 43.2391Z" fill="white"/>
<path d="M159.701 37.0004V29.9095H155.283V43.0004H159.701L163.337 35.8754V43.0004H167.754V29.9095H163.337L159.701 37.0004Z" fill="white"/>
<path d="M177.651 43.0004H182V29.9095H175.884C172.12 29.9095 169.742 31.8186 169.767 34.4777C169.75 35.9692 170.642 37.205 172.205 37.9379L169.631 43.0004H173.947L176.147 38.6709H177.651V43.0004ZM177.651 35.8414H175.986C174.737 35.8414 174.159 35.2277 174.185 34.6482C174.159 34.1027 174.703 33.4209 175.884 33.4209H177.651V35.8414Z" fill="white"/>
<path d="M13.7653 25.3826L16.4107 24.0738L20.592 17.7919L21.872 17.2685L23.2374 23.6376L21.4454 23.8993L20.08 21.2819L19.056 25.3826H23.5787L28.272 26.604L30.1494 25.3826L33.3067 28.698L34.672 22.5906L36.8907 24.8591L38.256 22.9396L40.4747 22.3289L43.7174 19.2752L44.2294 17.7919L46.8747 18.2282L47.9841 19.7114L46.0214 23.8993L50.8854 21.3691V20.1476L52.7627 19.7114L54.8107 21.8054L56.8587 19.2752V17.5302L60.1867 15.1745L61.5521 13.1678H63.6854L67.4401 5.40268L70.6828 2L71.8774 3.91946L70.0001 6.36242L70.6828 7.93289L72.4748 8.28188L73.9254 14.7383V20.1476L76.4854 23.7248L77.7654 28.698L73.3281 25.8188L71.3654 17.5302L70.1707 17.7919L70.0001 23.3758L66.7574 28.698L65.8187 36.8121L68.0374 37.3356L68.9761 36.2013L71.1094 38.6443L72.7307 45.9732L72.5601 50.6846H70.5121L69.7441 44.0537L68.2934 46.0604L65.1361 45.3624L62.5761 43.1812L59.6747 44.2282L59.8454 48.9396L57.5414 49.5503L54.1281 52.1678L50.0321 51.6443L48.4107 50.6846L45.8507 51.1208L46.7041 52.1678L44.6561 53.3893L43.0347 52.604L39.9627 54L35.2694 51.6443L33.4774 47.4564L31.9414 47.6309L30.1494 46.1477L30.064 45.0134L24.3467 44.4027L23.408 47.5436L19.824 45.8859L18.032 42.8322H14.192L13.7653 47.7181L11.5467 48.4161L10.4373 52.8658L9.584 52.0805L6 42.745L10.2667 40.651L9.584 36.5503L8.90134 32.3624L10.7787 29.6577L10.1813 28L12.7413 25.2081L13.7653 25.3826ZM70.5121 35.6779L74.4374 41.6107L75.7174 41.0872L74.0961 38.6443L70.5121 34.8054V35.6779ZM30.4054 23.6376V21.8926L33.392 19.7114L35.952 18.4027H32.9654L30.32 19.9732L28.6987 21.4564V23.6376H30.4054Z" stroke="black" stroke-width="2" mask="url(#path-1-outside-1_62863_869)"/>
<path d="M95.8314 43.0004H100.555V37.8186H103.171C107.138 37.8186 109.797 35.4749 109.797 31.7164C109.797 28.0004 107.206 25.5459 103.341 25.5459H95.8314V43.0004ZM100.555 34.1368V29.33H102.22C103.876 29.33 104.87 30.2164 104.87 31.7164C104.87 33.2078 103.876 34.1368 102.22 34.1368H100.555Z" stroke="black" stroke-width="2" mask="url(#path-1-outside-1_62863_869)"/>
<path d="M117.604 43.2391C121.851 43.2391 124.366 40.5118 124.366 36.4891C124.366 32.4664 121.851 29.7391 117.604 29.7391C113.356 29.7391 110.842 32.4664 110.842 36.4891C110.842 40.5118 113.356 43.2391 117.604 43.2391ZM117.638 39.7618C116.381 39.7618 115.633 38.509 115.633 36.455C115.633 34.401 116.381 33.1482 117.638 33.1482C118.827 33.1482 119.575 34.401 119.575 36.455C119.575 38.509 118.827 39.7618 117.638 39.7618Z" stroke="black" stroke-width="2" mask="url(#path-1-outside-1_62863_869)"/>
<path d="M132.555 43.2391C136.42 43.2391 138.79 41.0146 138.841 37.5459H134.492C134.39 38.9181 133.651 39.6595 132.623 39.6595C131.391 39.6595 130.584 38.6027 130.584 36.455C130.584 34.3073 131.391 33.2504 132.623 33.2504C133.659 33.2504 134.364 33.9919 134.492 35.3641H138.841C138.816 31.955 136.395 29.7391 132.555 29.7391C128.308 29.7391 125.793 32.4664 125.793 36.4891C125.793 40.5118 128.308 43.2391 132.555 43.2391Z" stroke="black" stroke-width="2" mask="url(#path-1-outside-1_62863_869)"/>
<path d="M147.062 43.2391C150.928 43.2391 153.298 41.0146 153.349 37.5459H148.999C148.897 38.9181 148.158 39.6595 147.13 39.6595C145.899 39.6595 145.092 38.6027 145.092 36.455C145.092 34.3073 145.899 33.2504 147.13 33.2504C148.167 33.2504 148.872 33.9919 148.999 35.3641H153.349C153.323 31.955 150.902 29.7391 147.062 29.7391C142.815 29.7391 140.3 32.4664 140.3 36.4891C140.3 40.5118 142.815 43.2391 147.062 43.2391Z" stroke="black" stroke-width="2" mask="url(#path-1-outside-1_62863_869)"/>
<path d="M159.701 37.0004V29.9095H155.283V43.0004H159.701L163.337 35.8754V43.0004H167.754V29.9095H163.337L159.701 37.0004Z" stroke="black" stroke-width="2" mask="url(#path-1-outside-1_62863_869)"/>
<path d="M177.651 43.0004H182V29.9095H175.884C172.12 29.9095 169.742 31.8186 169.767 34.4777C169.75 35.9692 170.642 37.205 172.205 37.9379L169.631 43.0004H173.947L176.147 38.6709H177.651V43.0004ZM177.651 35.8414H175.986C174.737 35.8414 174.159 35.2277 174.185 34.6482C174.159 34.1027 174.703 33.4209 175.884 33.4209H177.651V35.8414Z" stroke="black" stroke-width="2" mask="url(#path-1-outside-1_62863_869)"/>
</g>
<defs>
<filter id="filter0_d_62863_869" x="0.73877" y="0.375488" width="186.261" height="62.7324" filterUnits="userSpaceOnUse" color-interpolation-filters="sRGB">
<feFlood flood-opacity="0" result="BackgroundImageFix"/>
<feColorMatrix in="SourceAlpha" type="matrix" values="0 0 0 0 0 0 0 0 0 0 0 0 0 0 0 0 0 0 127 0" result="hardAlpha"/>
<feOffset dy="4"/>
<feGaussianBlur stdDeviation="2"/>
<feComposite in2="hardAlpha" operator="out"/>
<feColorMatrix type="matrix" values="0 0 0 0 0 0 0 0 0 0 0 0 0 0 0 0 0 0 0.25 0"/>
<feBlend mode="normal" in2="BackgroundImageFix" result="effect1_dropShadow_62863_869"/>
<feBlend mode="normal" in="SourceGraphic" in2="effect1_dropShadow_62863_869" result="shape"/>
</filter>
</defs>
</svg>
