<svg width="893" height="257" viewBox="0 0 893 257" fill="none" xmlns="http://www.w3.org/2000/svg">
<g filter="url(#filter0_d_62863_826)">
<path fill-rule="evenodd" clip-rule="evenodd" d="M857.716 153.28C857.716 153.583 857.504 153.829 857.244 153.829C849.921 153.829 846.017 155.715 839.777 158.73C839.289 158.966 838.787 159.208 838.268 159.457C837.398 159.875 836.409 159.617 835.419 159.026C834.42 158.429 833.329 157.437 832.192 156.197C829.915 153.712 827.366 150.129 824.878 146.379C823.21 143.864 821.558 141.257 820.027 138.842C819.275 137.655 818.553 136.515 817.872 135.454C816.836 133.841 815.897 132.413 815.092 131.278C814.28 130.131 813.631 129.321 813.174 128.913C800.945 118.016 783.857 126.89 780.93 142.238C780.209 146.018 779.431 148.859 778.584 150.941C777.739 153.021 776.807 154.389 775.757 155.166C773.614 156.754 771.233 155.717 768.811 154.201C768.089 153.749 767.355 153.249 766.603 152.738C764.751 151.478 762.791 150.146 760.639 149.266C757.659 148.048 754.386 147.744 750.731 149.874C749.616 150.524 748.044 152.075 746.283 154.097C744.536 156.103 742.644 158.52 740.895 160.846C739.149 163.168 737.549 165.393 736.38 167.019L736.376 167.025C735.792 167.837 735.314 168.502 734.98 168.952C734.814 169.176 734.678 169.355 734.581 169.474C734.535 169.529 734.484 169.589 734.436 169.635L734.435 169.636C734.419 169.651 734.36 169.707 734.279 169.743C734.247 169.757 734.105 169.818 733.937 169.744C733.714 169.645 733.646 169.413 733.633 169.293C733.05 163.851 730.43 157.983 726.74 153.696C723.048 149.407 718.358 146.778 713.649 147.622C706.03 148.988 701.629 154.347 697.961 160.794C696.788 162.856 695.703 165.004 694.611 167.167C693.986 168.406 693.358 169.649 692.709 170.884C690.941 174.252 689.042 177.512 686.698 180.243C686.408 180.581 686.085 180.798 685.73 180.876C685.377 180.953 685.037 180.884 684.726 180.737C684.125 180.454 683.561 179.848 683.061 179.234C682.805 178.919 682.552 178.584 682.309 178.262L682.306 178.259C682.061 177.934 681.827 177.624 681.598 177.344C681.369 177.062 681.155 176.823 680.955 176.641C680.752 176.456 680.588 176.352 680.458 176.308C678.689 175.719 676.314 175.585 673.905 175.737C671.503 175.889 669.11 176.324 667.323 176.845C664.457 177.68 660.819 179.877 656.757 182.676C654.552 184.195 652.258 185.866 649.913 187.574C647.925 189.022 645.899 190.497 643.859 191.93C639.442 195.033 635.013 197.897 630.972 199.68C626.947 201.455 623.208 202.204 620.221 200.922C617.938 199.941 615.922 198.894 614.026 197.879C613.693 197.701 613.364 197.525 613.038 197.349C611.503 196.524 610.035 195.735 608.534 195.027C604.912 193.319 601.12 192.097 595.908 192.097C593.511 192.097 592.159 192.694 591.261 193.433C590.807 193.807 590.453 194.231 590.129 194.672C589.988 194.865 589.855 195.057 589.72 195.252L589.657 195.344C589.502 195.567 589.343 195.795 589.176 196.011C588.84 196.446 588.456 196.855 587.951 197.15C587.444 197.446 586.844 197.609 586.095 197.601C584.62 197.587 582.526 196.911 579.297 195.239C574.474 192.741 570.145 188.741 565.868 184.592C565.368 184.107 564.869 183.62 564.37 183.133C560.581 179.437 556.79 175.738 552.644 172.887C551.288 171.954 548.89 169.918 545.861 167.346C544.805 166.449 543.673 165.488 542.481 164.485C537.85 160.588 532.284 156.037 526.717 152.151C521.141 148.259 515.603 145.063 511.021 143.844C508.731 143.235 506.72 143.13 505.078 143.642C503.455 144.147 502.17 145.26 501.307 147.159C498.706 152.883 498.891 159.185 499.079 165.621C499.094 166.124 499.109 166.627 499.122 167.131C499.306 174.032 499.239 181.022 495.181 187.102C489.53 195.568 485.551 206.042 485.551 217.06C485.551 219.86 484.851 228.16 483.798 235.401C483.272 239.022 482.653 242.414 481.98 244.737C481.647 245.885 481.284 246.837 480.879 247.419C480.676 247.709 480.42 247.97 480.1 248.063C479.748 248.166 479.42 248.037 479.152 247.777C476.584 245.282 472.305 244.048 467.129 243.437C462.701 242.915 457.703 242.856 452.707 242.796C451.885 242.787 451.064 242.777 450.246 242.765C444.467 242.682 438.812 242.496 434.27 241.461C429.755 240.432 426.161 238.525 424.749 234.822C423.872 232.522 423.506 230.299 423.252 228.278C423.194 227.814 423.141 227.364 423.091 226.929C422.918 225.44 422.764 224.114 422.448 222.928C422.049 221.435 421.406 220.228 420.159 219.331C418.89 218.419 416.951 217.795 413.905 217.608C409.589 217.344 406.666 216.45 404.682 214.932C402.674 213.396 401.686 211.262 401.161 208.686C400.709 206.464 400.594 203.867 400.467 201.006C400.449 200.593 400.43 200.174 400.41 199.75C400.252 196.368 400.011 192.598 399.181 188.485C399.047 187.822 398.91 186.841 398.755 185.727C398.71 185.401 398.663 185.065 398.614 184.722C398.396 183.184 398.134 181.479 397.789 179.932C397.44 178.371 397.019 177.034 396.506 176.19C396.252 175.772 396 175.516 395.756 175.393C395.528 175.278 395.27 175.259 394.946 175.406C387.1 178.962 379.032 181.45 370.939 183.946L370.419 184.106C364.025 186.079 359.635 187.146 356.538 187.304C353.423 187.463 351.512 186.707 350.197 184.914C349.557 184.04 349.081 182.95 348.666 181.684C348.25 180.418 347.884 178.94 347.476 177.28L347.425 177.072C346.615 173.777 345.615 169.703 343.72 164.846C342.081 160.645 339.809 157.766 337.216 155.187C336.055 154.033 334.834 152.943 333.573 151.817C333.422 151.682 333.269 151.546 333.117 151.409C331.697 150.14 330.236 148.815 328.785 147.313C327.731 146.221 326.07 145.078 324.116 143.863C323.258 143.33 322.33 142.776 321.381 142.208C320.216 141.512 319.02 140.797 317.885 140.081C315.801 138.767 313.805 137.378 312.286 135.906C310.78 134.447 309.657 132.825 309.475 131.021C309.109 127.395 307.877 125.724 306.3 125.12C304.654 124.49 302.471 124.951 300.095 126.056C295.369 128.254 290.286 132.802 288.193 134.752C285.642 137.131 283.118 139.45 280.627 141.739C262.383 158.501 245.939 173.61 233.882 198.198L233.792 198.382C232.687 200.639 228.849 208.476 225.129 213.523C224.17 214.824 223.206 215.959 222.285 216.769C221.378 217.566 220.445 218.109 219.562 218.087C218.617 218.064 217.867 217.403 217.352 216.18C216.849 214.985 216.537 213.191 216.431 210.709C216.111 203.259 213.76 195.295 210.721 187.561C208.347 181.519 205.569 175.654 203.037 170.307C202.327 168.81 201.637 167.353 200.981 165.944C188.611 139.403 174.899 112.057 153.388 94.5572C151.828 93.2875 150.432 92.1812 149.167 91.1777C145.796 88.5047 143.346 86.5619 141.141 84.2069C138.088 80.9455 135.501 76.8962 131.512 69.052C131.218 68.4728 130.922 67.8893 130.625 67.3029C126.555 59.2739 122.206 50.6945 116.843 44.7778C113.974 41.6121 110.836 39.2342 107.321 38.1106C103.812 36.9892 99.8933 37.106 95.4405 38.993C93.8894 39.6503 92.2301 40.9837 90.5416 42.75C88.8578 44.5113 87.1703 46.6759 85.5608 48.9593C82.9346 52.6852 80.5387 56.6939 78.7182 59.7398C78.3057 60.4301 77.9227 61.0709 77.5732 61.6478C64.5732 83.1097 47.916 99.8449 31.0626 116.777C28.3487 119.504 25.6297 122.236 22.92 124.993C22.7239 125.193 22.426 125.169 22.2547 124.941C22.0834 124.712 22.1036 124.365 22.2997 124.165C25.0176 121.399 27.7416 118.662 30.4579 115.933C47.3155 98.9952 63.875 82.3567 76.8028 61.014C77.1472 60.4455 77.5264 59.8109 77.9362 59.1251C79.7563 56.0797 82.1793 52.0253 84.832 48.2618C86.4583 45.9546 88.1794 43.7442 89.9117 41.9321C91.6392 40.125 93.4036 38.6867 95.1182 37.9601C99.7373 36.0027 103.856 35.8636 107.57 37.0508C111.278 38.2358 114.548 40.7312 117.492 43.9797C122.955 50.0081 127.37 58.7181 131.42 66.711C131.723 67.3091 132.024 67.9031 132.324 68.4918C136.298 76.3075 138.829 80.2457 141.779 83.3968C143.93 85.6942 146.301 87.5749 149.642 90.2245C150.916 91.2347 152.331 92.3566 153.928 93.656C175.644 111.323 189.447 138.894 201.809 165.419C202.46 166.815 203.145 168.262 203.852 169.754C206.387 175.106 209.188 181.02 211.578 187.103C214.635 194.881 217.044 202.996 217.373 210.654C217.477 213.085 217.78 214.701 218.199 215.696C218.607 216.665 219.087 216.976 219.582 216.989C220.14 217.003 220.858 216.646 221.717 215.891C222.561 215.149 223.476 214.079 224.414 212.807C228.071 207.844 231.872 200.085 232.978 197.827L233.063 197.653C245.217 172.867 261.812 157.622 280.048 140.871C282.538 138.583 285.06 136.267 287.604 133.894C289.694 131.946 294.875 127.3 299.746 125.035C302.169 123.908 304.618 123.32 306.594 124.076C308.639 124.859 310.019 127.009 310.411 130.893C310.549 132.261 311.43 133.648 312.888 135.061C314.333 136.461 316.26 137.807 318.334 139.115C319.484 139.84 320.643 140.533 321.784 141.214C322.727 141.777 323.658 142.333 324.56 142.894C326.51 144.105 328.264 145.302 329.412 146.491C330.835 147.966 332.273 149.269 333.691 150.537C333.843 150.674 333.996 150.81 334.148 150.946C335.406 152.069 336.647 153.177 337.828 154.351C340.485 156.993 342.864 159.995 344.579 164.391C346.502 169.323 347.519 173.463 348.329 176.76L348.382 176.977C348.793 178.648 349.148 180.078 349.547 181.291C349.944 182.502 350.373 183.461 350.915 184.2C351.964 185.632 353.529 186.358 356.496 186.206C359.481 186.054 363.78 185.017 370.177 183.044L370.677 182.89C378.784 180.39 386.808 177.915 394.604 174.382C395.14 174.139 395.657 174.145 396.131 174.384C396.59 174.616 396.965 175.043 397.276 175.555C397.893 176.57 398.348 178.072 398.701 179.656C399.058 181.254 399.326 183 399.545 184.542C399.596 184.903 399.645 185.251 399.691 185.583C399.844 186.687 399.973 187.612 400.099 188.233C400.949 192.444 401.193 196.293 401.352 199.69C401.372 200.119 401.391 200.54 401.409 200.953C401.537 203.831 401.648 206.316 402.079 208.432C402.565 210.818 403.447 212.672 405.2 214.014C406.977 215.374 409.703 216.25 413.955 216.511C417.069 216.702 419.191 217.344 420.654 218.396C422.139 219.464 422.9 220.921 423.348 222.602C423.691 223.884 423.858 225.335 424.033 226.841C424.082 227.264 424.131 227.69 424.185 228.119C424.435 230.106 424.786 232.212 425.611 234.376C426.82 237.544 429.977 239.362 434.451 240.382C438.896 241.396 444.467 241.583 450.258 241.666C451.072 241.678 451.89 241.688 452.709 241.697C457.702 241.756 462.749 241.816 467.224 242.344C472.413 242.956 476.95 244.208 479.756 246.933C479.844 247.018 479.871 246.997 479.872 246.997C479.905 246.988 480 246.935 480.146 246.726C480.438 246.308 480.758 245.518 481.086 244.386C481.734 242.148 482.344 238.827 482.868 235.218C483.917 227.999 484.608 219.77 484.608 217.06C484.608 205.735 488.695 195.03 494.437 186.427C498.265 180.691 498.364 174.077 498.18 167.165C498.166 166.649 498.15 166.13 498.135 165.61C497.946 159.232 497.75 152.64 500.473 146.645C501.463 144.466 502.967 143.162 504.834 142.58C506.682 142.005 508.863 142.143 511.231 142.773C515.964 144.032 521.608 147.303 527.202 151.208C532.805 155.119 538.397 159.693 543.033 163.594C544.251 164.619 545.4 165.594 546.465 166.499C549.473 169.053 551.809 171.037 553.124 171.941C557.341 174.841 561.195 178.602 564.976 182.291C565.476 182.778 565.974 183.264 566.471 183.747C570.752 187.9 574.991 191.806 579.68 194.235C582.89 195.897 584.834 196.49 586.103 196.502C586.725 196.509 587.173 196.375 587.529 196.167C587.888 195.958 588.181 195.656 588.476 195.275C588.624 195.084 588.768 194.877 588.923 194.654C589.075 194.434 589.238 194.196 589.412 193.958C589.764 193.479 590.175 192.981 590.717 192.535C591.812 191.634 593.369 190.998 595.908 190.998C601.267 190.998 605.181 192.26 608.888 194.008C610.412 194.727 611.904 195.529 613.44 196.355C613.764 196.53 614.09 196.705 614.419 196.881C616.31 197.892 618.299 198.925 620.547 199.89C623.2 201.029 626.663 200.405 630.638 198.652C634.595 196.906 638.963 194.086 643.372 190.989C645.374 189.582 647.397 188.109 649.391 186.658C651.757 184.935 654.081 183.243 656.277 181.73C660.335 178.933 664.08 176.657 667.095 175.778C668.943 175.24 671.396 174.795 673.853 174.64C676.303 174.484 678.8 174.613 680.717 175.252C681.012 175.35 681.287 175.548 681.536 175.775C681.788 176.005 682.039 176.288 682.282 176.587C682.523 176.882 682.768 177.206 683.008 177.525L683.017 177.536C683.262 177.861 683.504 178.18 683.746 178.478C684.241 179.087 684.685 179.532 685.079 179.718C685.266 179.806 685.42 179.825 685.556 179.796C685.689 179.766 685.848 179.679 686.031 179.466C688.295 176.828 690.148 173.657 691.905 170.31C692.535 169.111 693.155 167.883 693.777 166.651C694.88 164.467 695.991 162.269 697.175 160.187C700.905 153.631 705.503 147.971 713.506 146.536C718.616 145.62 723.59 148.484 727.406 152.918C730.973 157.062 733.592 162.646 734.421 168.024C734.736 167.594 735.154 167.013 735.653 166.319L735.659 166.31C736.828 164.685 738.433 162.453 740.186 160.122C741.941 157.787 743.85 155.347 745.621 153.314C747.378 151.297 749.045 149.628 750.309 148.891C754.243 146.599 757.79 146.937 760.952 148.229C763.194 149.146 765.282 150.565 767.161 151.843C767.892 152.34 768.593 152.816 769.258 153.233C771.709 154.767 773.612 155.453 775.251 154.239C776.092 153.616 776.926 152.453 777.732 150.471C778.537 148.492 779.296 145.74 780.01 141.999C783.076 125.918 800.935 116.624 813.746 128.04C814.299 128.533 815.008 129.433 815.82 130.578C816.639 131.734 817.589 133.18 818.627 134.796C819.315 135.867 820.041 137.014 820.795 138.204C822.322 140.613 823.962 143.201 825.624 145.707C828.108 149.451 830.618 152.973 832.837 155.394C833.948 156.607 834.964 157.519 835.85 158.048C836.746 158.583 837.419 158.676 837.909 158.441C838.431 158.19 838.937 157.946 839.43 157.708C845.672 154.692 849.73 152.73 857.244 152.73C857.504 152.73 857.716 152.976 857.716 153.28Z" fill="white"/>
<path d="M74.5619 10.0966H77.1909C78.7851 10.0966 79.5051 9.17164 79.5051 7.94616C79.5051 6.70897 78.7616 6.01037 78.0818 5.96744V5.88939C78.7114 5.70205 79.2372 5.20249 79.2372 4.20338C79.2372 3.02083 78.5339 2.10367 77.0737 2.10367H74.5619V10.0966ZM75.5968 9.06236V6.50212H77.1273C77.9579 6.50212 78.477 7.12657 78.477 7.88762C78.477 8.5589 78.0851 9.06236 77.0904 9.06236H75.5968ZM75.5968 5.56155V3.13011H77.0101C77.8306 3.13011 78.2224 3.63357 78.2224 4.29704C78.2224 5.0698 77.6799 5.56155 76.9833 5.56155H75.5968Z" fill="white"/>
<path d="M82.1472 10.0966H86.4875V9.05846H83.182V6.6114H86.2229V5.57716H83.182V3.14182H86.4473V2.10367H82.1472V10.0966Z" fill="white"/>
<path d="M88.7252 10.0966H89.0199C90.5805 10.0966 90.9556 8.74623 91.0461 6.17819L91.1532 3.12621H93.4942V10.0966H94.5157V2.10367H90.1787L90.0614 5.85816C89.9878 8.17252 89.7466 9.01943 88.9261 9.04284L88.7252 9.05065V10.0966Z" fill="white"/>
<path d="M97.4374 2.10367V10.0966H98.3885L101.875 4.2346H101.938V10.0966H102.973V2.10367H102.016L98.5258 7.97348H98.4622V2.10367H97.4374Z" fill="white"/>
<path d="M109.96 10.0966H111.223L108.393 5.71766L111.239 2.10367H109.957L107.287 5.47959H106.932V2.10367H105.898V10.0966H106.932V6.51383H107.642L109.96 10.0966Z" fill="white"/>
<path d="M113.685 2.10367V10.0966H114.637L118.123 4.2346H118.187V10.0966H119.221V2.10367H118.264L114.774 7.97348H114.71V2.10367H113.685Z" fill="white"/>
<path d="M122.146 2.10367V10.0966H123.097L126.583 4.2346H126.647V10.0966H127.682V2.10367H126.724L123.234 7.97348H123.17V2.10367H122.146ZM125.572 0.0742188C125.572 0.468401 125.384 0.81575 124.915 0.81575C124.44 0.81575 124.262 0.464498 124.262 0.0742188H123.442C123.442 0.952348 124.014 1.55728 124.915 1.55728C125.823 1.55728 126.396 0.952348 126.396 0.0742188H125.572Z" fill="white"/>
<path d="M70.272 23.2849H71.3068V19.7997H74.7262V23.2849H75.7644V15.292H74.7262V18.7655H71.3068V15.292H70.272V23.2849Z" fill="white"/>
<path d="M84.644 19.2885C84.644 16.7321 83.3312 15.1827 81.5562 15.1827C79.7745 15.1827 78.4651 16.7321 78.4651 19.2885C78.4651 21.8409 79.7745 23.3942 81.5562 23.3942C83.3312 23.3942 84.644 21.8448 84.644 19.2885ZM83.6192 19.2885C83.6192 21.236 82.7351 22.2936 81.5562 22.2936C80.374 22.2936 79.4932 21.236 79.4932 19.2885C79.4932 17.341 80.374 16.2833 81.5562 16.2833C82.7351 16.2833 83.6192 17.341 83.6192 19.2885Z" fill="white"/>
<path d="M87.3489 23.2849H89.9779C91.572 23.2849 92.2921 22.36 92.2921 21.1345C92.2921 19.8973 91.5486 19.1987 90.8687 19.1558V19.0777C91.4984 18.8904 92.0242 18.3908 92.0242 17.3917C92.0242 16.2092 91.3209 15.292 89.8607 15.292H87.3489V23.2849ZM88.3837 22.2507V19.6905H89.9143C90.7448 19.6905 91.2639 20.3149 91.2639 21.0759C91.2639 21.7472 90.8721 22.2507 89.8774 22.2507H88.3837ZM88.3837 18.7499V16.3184H89.797C90.6176 16.3184 91.0094 16.8219 91.0094 17.4854C91.0094 18.2581 90.4668 18.7499 89.7702 18.7499H88.3837Z" fill="white"/>
<path d="M99.2109 15.292H94.9341V23.2849H95.969V16.3301H99.2109V15.292Z" fill="white"/>
<path d="M107.464 19.2885C107.464 16.7321 106.151 15.1827 104.376 15.1827C102.595 15.1827 101.285 16.7321 101.285 19.2885C101.285 21.8409 102.595 23.3942 104.376 23.3942C106.151 23.3942 107.464 21.8448 107.464 19.2885ZM106.439 19.2885C106.439 21.236 105.555 22.2936 104.376 22.2936C103.194 22.2936 102.313 21.236 102.313 19.2885C102.313 17.341 103.194 16.2833 104.376 16.2833C105.555 16.2833 106.439 17.341 106.439 19.2885Z" fill="white"/>
<path d="M110.169 23.2849H111.204V20.4749H112.611C114.201 20.4749 114.988 19.3548 114.988 17.8796C114.988 16.4082 114.208 15.292 112.614 15.292H110.169V23.2849ZM111.204 19.4524V16.3262H112.503C113.528 16.3262 113.947 16.9741 113.947 17.8796C113.947 18.785 113.528 19.4524 112.517 19.4524H111.204Z" fill="white"/>
<path d="M123.574 19.2885C123.574 16.7321 122.261 15.1827 120.486 15.1827C118.705 15.1827 117.395 16.7321 117.395 19.2885C117.395 21.8409 118.705 23.3942 120.486 23.3942C122.261 23.3942 123.574 21.8448 123.574 19.2885ZM122.549 19.2885C122.549 21.236 121.665 22.2936 120.486 22.2936C119.304 22.2936 118.423 21.236 118.423 19.2885C118.423 17.341 119.304 16.2833 120.486 16.2833C121.665 16.2833 122.549 17.341 122.549 19.2885Z" fill="white"/>
<path d="M125.76 25.2168H126.751V23.2849H131.356V25.2051H132.347V22.2624H131.57V15.292H127.341L127.18 18.6679C127.076 20.8925 126.671 21.8097 126.212 22.2624H125.76V25.2168ZM127.431 22.2624C127.823 21.5326 128.087 20.3578 128.171 18.6679L128.278 16.3301H130.579V22.2624H127.431Z" fill="white"/>
<path d="M10.2373 137.282H4.9458V145.275H5.9773V138.312H9.20578V145.275H10.2373V137.282Z" fill="white"/>
<path d="M18.9311 139.881C18.6966 138.172 17.5479 137.173 16.0978 137.173C14.3228 137.173 13.0133 138.722 13.0133 141.279C13.0133 143.835 14.3161 145.384 16.0978 145.384C17.6048 145.384 18.7067 144.284 18.9311 142.703L17.8862 142.699C17.7087 143.722 16.9719 144.284 16.1045 144.284C14.929 144.284 14.0415 143.234 14.0415 141.279C14.0415 139.339 14.9256 138.273 16.1078 138.273C16.9819 138.273 17.7154 138.847 17.8862 139.881H18.9311Z" fill="white"/>
<path d="M25.6464 145.275H26.909L24.079 140.896L26.9257 137.282H25.643L22.9738 140.658H22.6188V137.282H21.584V145.275H22.6188V141.692H23.3288L25.6464 145.275Z" fill="white"/>
<path d="M34.989 141.279C34.989 138.722 33.6762 137.173 31.9012 137.173C30.1195 137.173 28.8101 138.722 28.8101 141.279C28.8101 143.831 30.1195 145.384 31.9012 145.384C33.6762 145.384 34.989 143.835 34.989 141.279ZM33.9642 141.279C33.9642 143.226 33.0801 144.284 31.9012 144.284C30.719 144.284 29.8382 143.226 29.8382 141.279C29.8382 139.331 30.719 138.273 31.9012 138.273C33.0801 138.273 33.9642 139.331 33.9642 141.279Z" fill="white"/>
<path d="M37.6939 145.275H40.3229C41.917 145.275 42.6371 144.35 42.6371 143.125C42.6371 141.887 41.8936 141.189 41.2137 141.146V141.068C41.8433 140.881 42.3691 140.381 42.3691 139.382C42.3691 138.199 41.6658 137.282 40.2057 137.282H37.6939V145.275ZM38.7287 144.241V141.681H40.2592C41.0898 141.681 41.6089 142.305 41.6089 143.066C41.6089 143.737 41.2171 144.241 40.2224 144.241H38.7287ZM38.7287 140.74V138.309H40.142C40.9625 138.309 41.3544 138.812 41.3544 139.476C41.3544 140.248 40.8118 140.74 40.1152 140.74H38.7287Z" fill="white"/>
<path d="M158.869 167.992H161.006V174.947H162.038V167.992H164.178V166.954H158.869V167.992Z" fill="white"/>
<path d="M166.765 174.947H169.394C170.988 174.947 171.708 174.022 171.708 172.797C171.708 171.56 170.965 170.861 170.285 170.818V170.74C170.915 170.553 171.441 170.053 171.441 169.054C171.441 167.872 170.737 166.954 169.277 166.954H166.765V174.947ZM167.8 173.913V171.353H169.331C170.161 171.353 170.68 171.977 170.68 172.738C170.68 173.41 170.288 173.913 169.294 173.913H167.8ZM167.8 170.412V167.981H169.213C170.034 167.981 170.426 168.484 170.426 169.148C170.426 169.92 169.883 170.412 169.187 170.412H167.8Z" fill="white"/>
<path d="M174.35 174.947H178.691V173.909H175.385V171.462H178.426V170.428H175.385V167.992H178.651V166.954H174.35V174.947Z" fill="white"/>
<path d="M181.448 174.947H182.482V172.137H183.889C185.48 172.137 186.267 171.017 186.267 169.542C186.267 168.071 185.487 166.954 183.892 166.954H181.448V174.947ZM182.482 171.115V167.989H183.782C184.807 167.989 185.225 168.636 185.225 169.542C185.225 170.447 184.807 171.115 183.795 171.115H182.482Z" fill="white"/>
<path d="M189.94 170.178V166.954H188.901V174.947H191.47C192.997 174.947 193.871 173.956 193.868 172.524C193.871 171.095 192.997 170.178 191.47 170.178H189.94ZM189.94 171.193H191.47C192.358 171.193 192.847 171.786 192.847 172.508C192.847 173.25 192.358 173.933 191.47 173.933H189.94V171.193Z" fill="white"/>
<path d="M251.452 199.126V191.133H249.007C247.416 191.133 246.632 192.167 246.632 193.639C246.632 194.712 247.051 195.528 247.892 195.891L246.371 199.126H247.55L248.943 196.101C248.967 196.101 248.987 196.101 249.01 196.101H250.417V199.126H251.452ZM250.417 195.063H249.104C248.096 195.063 247.674 194.54 247.674 193.639C247.674 192.733 248.096 192.167 249.117 192.167H250.417V195.063Z" fill="white"/>
<path d="M254.37 199.126H255.405V196.316H256.811C258.402 196.316 259.189 195.196 259.189 193.721C259.189 192.249 258.409 191.133 256.815 191.133H254.37V199.126ZM255.405 195.294V192.167H256.704C257.729 192.167 258.148 192.815 258.148 193.721C258.148 194.626 257.729 195.294 256.718 195.294H255.405Z" fill="white"/>
<path d="M267.775 195.13C267.775 192.573 266.462 191.024 264.687 191.024C262.905 191.024 261.596 192.573 261.596 195.13C261.596 197.682 262.905 199.235 264.687 199.235C266.462 199.235 267.775 197.686 267.775 195.13ZM266.75 195.13C266.75 197.077 265.866 198.135 264.687 198.135C263.505 198.135 262.624 197.077 262.624 195.13C262.624 193.182 263.505 192.125 264.687 192.125C265.866 192.125 266.75 193.182 266.75 195.13Z" fill="white"/>
<path d="M276.177 193.732C275.942 192.023 274.793 191.024 273.343 191.024C271.568 191.024 270.259 192.573 270.259 195.13C270.259 197.686 271.562 199.235 273.343 199.235C274.85 199.235 275.952 198.135 276.177 196.554L275.132 196.55C274.954 197.573 274.217 198.135 273.35 198.135C272.174 198.135 271.287 197.085 271.287 195.13C271.287 193.19 272.171 192.125 273.353 192.125C274.227 192.125 274.961 192.698 275.132 193.732H276.177Z" fill="white"/>
<path d="M278.31 199.126H278.605C280.166 199.126 280.541 197.776 280.631 195.208L280.738 192.156H283.079V199.126H284.101V191.133H279.764L279.647 194.888C279.573 197.202 279.332 198.049 278.511 198.072L278.31 198.08V199.126Z" fill="white"/>
<path d="M287.602 199.126L288.232 197.011H290.911L291.537 199.126H292.636L290.167 191.133H288.972L286.503 199.126H287.602ZM288.533 195.996L289.544 192.585H289.598L290.609 195.996H288.533Z" fill="white"/>
<path d="M295.041 199.126H297.67C299.264 199.126 299.984 198.201 299.984 196.976C299.984 195.739 299.24 195.04 298.561 194.997V194.919C299.19 194.732 299.716 194.232 299.716 193.233C299.716 192.05 299.013 191.133 297.552 191.133H295.041V199.126ZM296.076 198.092V195.532H297.606C298.437 195.532 298.956 196.156 298.956 196.917C298.956 197.588 298.564 198.092 297.569 198.092H296.076ZM296.076 194.591V192.16H297.489C298.309 192.16 298.701 192.663 298.701 193.327C298.701 194.099 298.159 194.591 297.462 194.591H296.076Z" fill="white"/>
<path d="M302.107 199.126H302.402C303.962 199.126 304.337 197.776 304.428 195.208L304.535 192.156H306.876V199.126H307.897V191.133H303.56L303.443 194.888C303.369 197.202 303.128 198.049 302.308 198.072L302.107 198.08V199.126Z" fill="white"/>
<path d="M311.864 194.357V191.133H310.826V199.126H313.394C314.922 199.126 315.796 198.135 315.792 196.702C315.796 195.274 314.922 194.357 313.394 194.357H311.864ZM311.864 195.372H313.394C314.282 195.372 314.771 195.965 314.771 196.687C314.771 197.428 314.282 198.111 313.394 198.111H311.864V195.372Z" fill="white"/>
<path d="M325.155 125.192V133.185H326.139V127.397H326.203L328.226 133.173H329.043L331.066 127.401H331.129V133.185H332.114V125.192H330.858L328.675 131.405H328.594L326.411 125.192H325.155Z" fill="white"/>
<path d="M335.788 133.185L336.417 131.07H339.096L339.723 133.185H340.821L338.353 125.192H337.157L334.689 133.185H335.788ZM336.719 130.055L337.73 126.644H337.784L338.795 130.055H336.719Z" fill="white"/>
<path d="M343.226 133.185H344.261V129.7H347.681V133.185H348.719V125.192H347.681V128.666H344.261V125.192H343.226V133.185Z" fill="white"/>
<path d="M351.302 126.23H353.439V133.185H354.47V126.23H356.61V125.192H351.302V126.23Z" fill="white"/>
<path d="M359.684 133.294H360.153C361.224 133.294 361.579 132.596 361.881 131.799L364.252 125.192H363.167L361.566 129.813L359.767 125.192H358.669L361.08 131.191L360.983 131.476C360.836 131.893 360.608 132.233 360.096 132.233H359.684V133.294Z" fill="white"/>
<path d="M366.645 133.185H367.68V130.375H369.087C370.677 130.375 371.464 129.255 371.464 127.78C371.464 126.308 370.684 125.192 369.09 125.192H366.645V133.185ZM367.68 129.352V126.226H368.979C370.004 126.226 370.423 126.874 370.423 127.78C370.423 128.685 370.004 129.352 368.993 129.352H367.68Z" fill="white"/>
<path d="M380.05 129.189C380.05 126.632 378.737 125.083 376.962 125.083C375.181 125.083 373.871 126.632 373.871 129.189C373.871 131.741 375.181 133.294 376.962 133.294C378.737 133.294 380.05 131.745 380.05 129.189ZM379.025 129.189C379.025 131.136 378.141 132.194 376.962 132.194C375.78 132.194 374.899 131.136 374.899 129.189C374.899 127.241 375.78 126.183 376.962 126.183C378.141 126.183 379.025 127.241 379.025 129.189Z" fill="white"/>
<path d="M382.755 133.185H385.384C386.978 133.185 387.698 132.26 387.698 131.035C387.698 129.797 386.955 129.099 386.275 129.056V128.978C386.905 128.79 387.43 128.291 387.43 127.292C387.43 126.109 386.727 125.192 385.267 125.192H382.755V133.185ZM383.79 132.151V129.59H385.32C386.151 129.59 386.67 130.215 386.67 130.976C386.67 131.647 386.278 132.151 385.284 132.151H383.79ZM383.79 128.65V126.218H385.203C386.024 126.218 386.416 126.722 386.416 127.385C386.416 128.158 385.873 128.65 385.176 128.65H383.79Z" fill="white"/>
<path d="M396.298 129.189C396.298 126.632 394.985 125.083 393.21 125.083C391.429 125.083 390.119 126.632 390.119 129.189C390.119 131.741 391.429 133.294 393.21 133.294C394.985 133.294 396.298 131.745 396.298 129.189ZM395.273 129.189C395.273 131.136 394.389 132.194 393.21 132.194C392.028 132.194 391.147 131.136 391.147 129.189C391.147 127.241 392.028 126.183 393.21 126.183C394.389 126.183 395.273 127.241 395.273 129.189Z" fill="white"/>
<path d="M378.739 163.961H380.001L377.171 159.582L380.018 155.968H378.735L376.066 159.344H375.711V155.968H374.676V163.961H375.711V160.378H376.421L378.739 163.961Z" fill="white"/>
<path d="M388.081 159.965C388.081 157.408 386.768 155.859 384.993 155.859C383.212 155.859 381.902 157.408 381.902 159.965C381.902 162.517 383.212 164.07 384.993 164.07C386.768 164.07 388.081 162.521 388.081 159.965ZM387.056 159.965C387.056 161.912 386.172 162.97 384.993 162.97C383.811 162.97 382.93 161.912 382.93 159.965C382.93 158.017 383.811 156.959 384.993 156.959C386.172 156.959 387.056 158.017 387.056 159.965Z" fill="white"/>
<path d="M390.162 157.006H392.299V163.961H393.331V157.006H395.471V155.968H390.162V157.006Z" fill="white"/>
<path d="M398.058 163.961H402.399V162.923H399.093V160.476H402.134V159.442H399.093V157.006H402.358V155.968H398.058V163.961Z" fill="white"/>
<path d="M404.636 163.961H404.931C406.492 163.961 406.867 162.611 406.957 160.043L407.064 156.991H409.405V163.961H410.427V155.968H406.09L405.973 159.723C405.899 162.037 405.658 162.884 404.837 162.907L404.636 162.915V163.961Z" fill="white"/>
<path d="M414.393 159.192V155.968H413.355V163.961H415.924C417.451 163.961 418.325 162.97 418.322 161.537C418.325 160.109 417.451 159.192 415.924 159.192H414.393ZM414.393 160.207H415.924C416.811 160.207 417.3 160.8 417.3 161.522C417.3 162.263 416.811 162.946 415.924 162.946H414.393V160.207Z" fill="white"/>
<path d="M420.998 163.961H422.033V160.476H425.452V163.961H426.491V155.968H425.452V159.442H422.033V155.968H420.998V163.961Z" fill="white"/>
<path d="M429.412 155.968V163.961H430.363L433.85 158.099H433.913V163.961H434.948V155.968H433.99L430.501 161.838H430.437V155.968H429.412Z" fill="white"/>
<path d="M438.01 155.968V158.606C438.006 160.39 438.934 161.093 440.434 161.093C441.094 161.093 441.664 160.995 442.156 160.831V163.961H443.181V155.968H442.156V159.801C441.643 159.961 441.007 160.058 440.434 160.058C439.54 160.058 439.031 159.707 439.031 158.606V155.968H438.01Z" fill="white"/>
<path d="M449.136 159.461H446.095V160.472H449.136V159.461Z" fill="white"/>
<path d="M454.283 155.968H453.318C453.282 156.187 452.759 157.198 451.758 157.198V158.189C452.535 158.189 453.074 157.83 453.188 157.596H453.245V163.961H454.283V155.968Z" fill="white"/>
<path d="M502.959 198.828H498.682V206.82H499.717V199.866H502.959V198.828Z" fill="white"/>
<path d="M505.021 206.82H505.315C506.876 206.82 507.251 205.47 507.342 202.902L507.449 199.85H509.79V206.82H510.811V198.828H506.474L506.357 202.582C506.283 204.896 506.042 205.743 505.222 205.767L505.021 205.775V206.82Z" fill="white"/>
<path d="M514.312 206.82L514.942 204.705H517.621L518.247 206.82H519.346L516.878 198.828H515.682L513.214 206.82H514.312ZM515.243 203.69L516.255 200.279H516.308L517.32 203.69H515.243Z" fill="white"/>
<path d="M524.045 206.93C525.445 206.93 526.473 205.954 526.47 204.627C526.473 203.616 525.947 202.89 525.036 202.726V202.664C525.753 202.449 526.219 201.794 526.215 200.896C526.219 199.721 525.391 198.718 524.072 198.718C522.813 198.718 521.801 199.604 521.768 200.904H522.769C522.793 200.17 523.385 199.725 524.058 199.725C524.758 199.725 525.217 200.221 525.214 200.958C525.217 201.731 524.685 202.239 523.925 202.239H523.345V203.222H523.925C524.876 203.222 525.425 203.784 525.425 204.588C525.425 205.365 524.845 205.892 524.038 205.892C523.295 205.892 522.716 205.447 522.675 204.736H521.624C521.667 206.04 522.659 206.93 524.045 206.93Z" fill="white"/>
<path d="M535.202 202.824C535.202 200.268 533.889 198.718 532.114 198.718C530.333 198.718 529.023 200.268 529.023 202.824C529.023 205.376 530.333 206.93 532.114 206.93C533.889 206.93 535.202 205.38 535.202 202.824ZM534.177 202.824C534.177 204.771 533.293 205.829 532.114 205.829C530.932 205.829 530.051 204.771 530.051 202.824C530.051 200.877 530.932 199.819 532.114 199.819C533.293 199.819 534.177 200.877 534.177 202.824Z" fill="white"/>
<path d="M537.907 206.82H540.536C542.13 206.82 542.85 205.896 542.85 204.67C542.85 203.433 542.107 202.734 541.427 202.691V202.613C542.056 202.426 542.582 201.926 542.582 200.927C542.582 199.745 541.879 198.828 540.419 198.828H537.907V206.82ZM538.942 205.786V203.226H540.472C541.303 203.226 541.822 203.85 541.822 204.611C541.822 205.283 541.43 205.786 540.435 205.786H538.942ZM538.942 202.285V199.854H540.355C541.176 199.854 541.567 200.357 541.567 201.021C541.567 201.794 541.025 202.285 540.328 202.285H538.942Z" fill="white"/>
<path d="M506.007 127.966H500.715V135.959H501.747V128.996H504.975V135.959H506.007V127.966Z" fill="white"/>
<path d="M509.004 135.959H513.344V134.921H510.038V132.474H513.079V131.44H510.038V129.004H513.304V127.966H509.004V135.959Z" fill="white"/>
<path d="M516.101 135.959H517.136V133.149H518.542C520.133 133.149 520.92 132.029 520.92 130.554C520.92 129.082 520.14 127.966 518.546 127.966H516.101V135.959ZM517.136 132.126V129H518.435C519.46 129 519.878 129.648 519.878 130.554C519.878 131.459 519.46 132.126 518.448 132.126H517.136Z" fill="white"/>
<path d="M523.548 127.966V135.959H524.532V130.171H524.596L526.619 135.947H527.436L529.459 130.175H529.523V135.959H530.507V127.966H529.251L527.068 134.179H526.987L524.804 127.966H523.548Z" fill="white"/>
<path d="M534.646 131.19V127.966H533.608V135.959H536.177C537.704 135.959 538.578 134.968 538.575 133.535C538.578 132.107 537.704 131.19 536.177 131.19H534.646ZM534.646 132.205H536.177C537.064 132.205 537.553 132.798 537.553 133.52C537.553 134.261 537.064 134.944 536.177 134.944H534.646V132.205Z" fill="white"/>
<path d="M569.075 170.192H571.212V177.147H572.243V170.192H574.383V169.154H569.075V170.192Z" fill="white"/>
<path d="M578.006 169.154H576.971V177.147H578.006V173.751H579.208C579.396 175.945 580.635 177.256 582.272 177.256C584.047 177.256 585.36 175.707 585.36 173.15C585.36 170.594 584.047 169.045 582.272 169.045C580.588 169.045 579.325 170.43 579.191 172.741H578.006V169.154ZM584.335 173.15C584.335 175.098 583.451 176.156 582.272 176.156C581.09 176.156 580.209 175.098 580.209 173.15C580.209 171.203 581.09 170.145 582.272 170.145C583.451 170.145 584.335 171.203 584.335 173.15Z" fill="white"/>
<path d="M587.89 169.154V177.147H588.875V171.359H588.938L590.961 177.135H591.778L593.801 171.363H593.865V177.147H594.849V169.154H593.593L591.41 175.367H591.329L589.146 169.154H587.89Z" fill="white"/>
<path d="M597.944 177.147H602.284V176.109H598.978V173.662H602.019V172.627H598.978V170.192H602.244V169.154H597.944V177.147Z" fill="white"/>
<path d="M605.041 177.147H606.075V173.662H609.495V177.147H610.533V169.154H609.495V172.627H606.075V169.154H605.041V177.147Z" fill="white"/>
<path d="M614.5 172.378V169.154H613.461V177.147H616.03C617.557 177.147 618.431 176.156 618.428 174.723C618.431 173.295 617.557 172.378 616.03 172.378H614.5ZM614.5 173.392H616.03C616.918 173.392 617.407 173.986 617.407 174.708C617.407 175.449 616.918 176.132 616.03 176.132H614.5V173.392Z" fill="white"/>
<path d="M662.455 197.327C662.455 194.771 661.142 193.221 659.367 193.221C657.585 193.221 656.276 194.771 656.276 197.327C656.276 199.88 657.585 201.433 659.367 201.433C661.142 201.433 662.455 199.884 662.455 197.327ZM661.43 197.327C661.43 199.275 660.546 200.332 659.367 200.332C658.185 200.332 657.304 199.275 657.304 197.327C657.304 195.38 658.185 194.322 659.367 194.322C660.546 194.322 661.43 195.38 661.43 197.327Z" fill="white"/>
<path d="M665.16 193.331V201.324H666.144V195.536H666.208L668.231 201.312H669.048L671.071 195.54H671.134V201.324H672.119V193.331H670.863L668.68 199.544H668.599L666.416 193.331H665.16Z" fill="white"/>
<path d="M680.91 195.93C680.675 194.221 679.527 193.221 678.077 193.221C676.302 193.221 674.992 194.771 674.992 197.327C674.992 199.884 676.295 201.433 678.077 201.433C679.584 201.433 680.686 200.332 680.91 198.752L679.865 198.748C679.688 199.77 678.951 200.332 678.083 200.332C676.908 200.332 676.02 199.282 676.02 197.327C676.02 195.387 676.904 194.322 678.087 194.322C678.961 194.322 679.694 194.896 679.865 195.93H680.91Z" fill="white"/>
<path d="M687.625 201.324H688.888L686.058 196.945L688.905 193.331H687.622L684.953 196.707H684.598V193.331H683.563V201.324H684.598V197.741H685.308L687.625 201.324Z" fill="white"/>
<path d="M764.237 114.502H765.5L762.67 110.123L765.517 106.509H764.234L761.565 109.885H761.21V106.509H760.175V114.502H761.21V110.92H761.92L764.237 114.502Z" fill="white"/>
<path d="M767.963 114.502H768.998V111.692H770.404C771.995 111.692 772.782 110.572 772.782 109.097C772.782 107.626 772.002 106.509 770.408 106.509H767.963V114.502ZM768.998 110.67V107.544H770.297C771.322 107.544 771.741 108.192 771.741 109.097C771.741 110.002 771.322 110.67 770.311 110.67H768.998Z" fill="white"/>
<path d="M775.262 114.502L775.891 112.387H778.571L779.197 114.502H780.295L777.827 106.509H776.632L774.163 114.502H775.262ZM776.193 111.372L777.204 107.961H777.258L778.269 111.372H776.193Z" fill="white"/>
<path d="M788.075 109.109C787.84 107.399 786.692 106.4 785.242 106.4C783.467 106.4 782.157 107.95 782.157 110.506C782.157 113.062 783.46 114.612 785.242 114.612C786.749 114.612 787.851 113.511 788.075 111.93L787.03 111.927C786.852 112.949 786.116 113.511 785.248 113.511C784.073 113.511 783.185 112.461 783.185 110.506C783.185 108.566 784.069 107.501 785.252 107.501C786.126 107.501 786.859 108.074 787.03 109.109H788.075Z" fill="white"/>
<path d="M790.728 114.502H791.763V111.017H795.182V114.502H796.22V106.509H795.182V109.983H791.763V106.509H790.728V114.502Z" fill="white"/>
<path d="M805.1 110.506C805.1 107.95 803.787 106.4 802.012 106.4C800.23 106.4 798.921 107.95 798.921 110.506C798.921 113.058 800.23 114.612 802.012 114.612C803.787 114.612 805.1 113.062 805.1 110.506ZM804.075 110.506C804.075 112.453 803.191 113.511 802.012 113.511C800.83 113.511 799.949 112.453 799.949 110.506C799.949 108.558 800.83 107.501 802.012 107.501C803.191 107.501 804.075 108.558 804.075 110.506Z" fill="white"/>
<path d="M812.38 114.502V106.509H809.935C808.344 106.509 807.56 107.544 807.56 109.015C807.56 110.088 807.979 110.904 808.82 111.267L807.299 114.502H808.478L809.871 111.478C809.895 111.478 809.915 111.478 809.938 111.478H811.345V114.502H812.38ZM811.345 110.44H810.032C809.024 110.44 808.602 109.917 808.602 109.015C808.602 108.11 809.024 107.544 810.045 107.544H811.345V110.44Z" fill="white"/>
<path d="M815.298 114.502H816.333V111.692H817.739C819.33 111.692 820.117 110.572 820.117 109.097C820.117 107.626 819.337 106.509 817.743 106.509H815.298V114.502ZM816.333 110.67V107.544H817.632C818.657 107.544 819.076 108.192 819.076 109.097C819.076 110.002 818.657 110.67 817.646 110.67H816.333Z" fill="white"/>
<path d="M828.442 109.109C828.207 107.399 827.059 106.4 825.608 106.4C823.833 106.4 822.524 107.95 822.524 110.506C822.524 113.062 823.827 114.612 825.608 114.612C827.115 114.612 828.217 113.511 828.442 111.93L827.397 111.927C827.219 112.949 826.483 113.511 825.615 113.511C824.44 113.511 823.552 112.461 823.552 110.506C823.552 108.566 824.436 107.501 825.618 107.501C826.493 107.501 827.226 108.074 827.397 109.109H828.442Z" fill="white"/>
<path d="M835.157 114.502H836.42L833.59 110.123L836.436 106.509H835.154L832.484 109.885H832.129V106.509H831.095V114.502H832.129V110.92H832.839L835.157 114.502Z" fill="white"/>
<path d="M830.738 177.256H831.207C832.279 177.256 832.634 176.558 832.935 175.761L835.306 169.154H834.221L832.621 173.775L830.822 169.154H829.724L832.135 175.153L832.038 175.437C831.89 175.855 831.663 176.195 831.15 176.195H830.738V177.256Z" fill="white"/>
<path d="M837.181 177.147H837.475C839.036 177.147 839.411 175.797 839.502 173.228L839.609 170.176H841.95V177.147H842.971V169.154H838.634L838.517 172.908C838.443 175.223 838.202 176.07 837.382 176.093L837.181 176.101V177.147Z" fill="white"/>
<path d="M846.472 177.147L847.102 175.032H849.781L850.407 177.147H851.506L849.038 169.154H847.842L845.374 177.147H846.472ZM847.403 174.017L848.415 170.606H848.468L849.48 174.017H847.403Z" fill="white"/>
<path d="M853.911 177.147H854.946V173.662H858.365V177.147H859.403V169.154H858.365V172.627H854.946V169.154H853.911V177.147Z" fill="white"/>
<path d="M865.276 172.647H862.235V173.658H865.276V172.647Z" fill="white"/>
<path d="M867.992 177.256H868.461C869.533 177.256 869.888 176.558 870.189 175.761L872.56 169.154H871.475L869.874 173.775L868.076 169.154H866.978L869.389 175.153L869.292 175.437C869.144 175.855 868.917 176.195 868.404 176.195H867.992V177.256Z" fill="white"/>
<path d="M874.435 179.079H875.426V177.147H880.031V179.067H881.022V176.124H880.245V169.154H876.015L875.855 172.53C875.751 174.754 875.346 175.672 874.887 176.124H874.435V179.079ZM876.106 176.124C876.498 175.395 876.762 174.22 876.846 172.53L876.953 170.192H879.254V176.124H876.106Z" fill="white"/>
<path d="M883.353 174.61C883.483 176.124 884.334 177.256 885.988 177.256C887.643 177.256 888.701 175.816 888.701 173.576V172.745C888.701 170.504 887.63 169.045 885.932 169.045C884.317 169.045 883.483 170.192 883.349 171.738H884.404C884.512 170.699 884.93 170.083 885.932 170.083C887.033 170.083 887.65 171.121 887.653 172.737H885.124V173.759H887.65C887.606 175.168 887.077 176.234 885.988 176.234C884.96 176.234 884.522 175.664 884.404 174.61H883.353Z" fill="white"/>
<path d="M105.362 36.8408C105.362 38.9609 103.887 40.6796 102.068 40.6796C100.249 40.6796 98.7737 38.9609 98.7737 36.8408C98.7737 34.7206 100.249 33.002 102.068 33.002C103.887 33.002 105.362 34.7206 105.362 36.8408Z" fill="#272722"/>
<path fill-rule="evenodd" clip-rule="evenodd" d="M102.068 39.5805C103.366 39.5805 104.419 38.3539 104.419 36.8408C104.419 35.3276 103.366 34.101 102.068 34.101C100.769 34.101 99.7168 35.3276 99.7168 36.8408C99.7168 38.3539 100.769 39.5805 102.068 39.5805ZM102.068 40.6796C103.887 40.6796 105.362 38.9609 105.362 36.8408C105.362 34.7206 103.887 33.002 102.068 33.002C100.249 33.002 98.7737 34.7206 98.7737 36.8408C98.7737 38.9609 100.249 40.6796 102.068 40.6796Z" fill="white"/>
<path d="M24.4818 126.036C24.4818 128.156 23.007 129.874 21.1877 129.874C19.3684 129.874 17.8936 128.156 17.8936 126.036C17.8936 123.915 19.3684 122.197 21.1877 122.197C23.007 122.197 24.4818 123.915 24.4818 126.036Z" fill="#131313"/>
<path fill-rule="evenodd" clip-rule="evenodd" d="M21.1877 128.775C22.4861 128.775 23.5387 127.549 23.5387 126.036C23.5387 124.522 22.4861 123.296 21.1877 123.296C19.8892 123.296 18.8366 124.522 18.8366 126.036C18.8366 127.549 19.8892 128.775 21.1877 128.775ZM21.1877 129.874C23.007 129.874 24.4818 128.156 24.4818 126.036C24.4818 123.915 23.007 122.197 21.1877 122.197C19.3684 122.197 17.8936 123.915 17.8936 126.036C17.8936 128.156 19.3684 129.874 21.1877 129.874Z" fill="white"/>
<path d="M207.477 171.198C207.477 173.319 206.002 175.037 204.183 175.037C202.364 175.037 200.889 173.319 200.889 171.198C200.889 169.078 202.364 167.36 204.183 167.36C206.002 167.36 207.477 169.078 207.477 171.198Z" fill="#4D5648"/>
<path fill-rule="evenodd" clip-rule="evenodd" d="M204.183 173.938C205.481 173.938 206.534 172.712 206.534 171.198C206.534 169.685 205.481 168.459 204.183 168.459C202.884 168.459 201.832 169.685 201.832 171.198C201.832 172.712 202.884 173.938 204.183 173.938ZM204.183 175.037C206.002 175.037 207.477 173.319 207.477 171.198C207.477 169.078 206.002 167.36 204.183 167.36C202.364 167.36 200.889 169.078 200.889 171.198C200.889 173.319 202.364 175.037 204.183 175.037Z" fill="white"/>
<path d="M237.95 195.194C237.95 197.314 236.475 199.033 234.655 199.033C232.836 199.033 231.361 197.314 231.361 195.194C231.361 193.074 232.836 191.355 234.655 191.355C236.475 191.355 237.95 193.074 237.95 195.194Z" fill="#47443E"/>
<path fill-rule="evenodd" clip-rule="evenodd" d="M234.655 197.934C235.954 197.934 237.006 196.707 237.006 195.194C237.006 193.681 235.954 192.454 234.655 192.454C233.357 192.454 232.304 193.681 232.304 195.194C232.304 196.707 233.357 197.934 234.655 197.934ZM234.655 199.033C236.475 199.033 237.95 197.314 237.95 195.194C237.95 193.074 236.475 191.355 234.655 191.355C232.836 191.355 231.361 193.074 231.361 195.194C231.361 197.314 232.836 199.033 234.655 199.033Z" fill="white"/>
<path d="M321.126 139.53C321.126 141.65 319.652 143.369 317.832 143.369C316.013 143.369 314.538 141.65 314.538 139.53C314.538 137.41 316.013 135.691 317.832 135.691C319.652 135.691 321.126 137.41 321.126 139.53Z" fill="#93A47C"/>
<path fill-rule="evenodd" clip-rule="evenodd" d="M317.832 142.27C319.131 142.27 320.183 141.043 320.183 139.53C320.183 138.017 319.131 136.79 317.832 136.79C316.534 136.79 315.481 138.017 315.481 139.53C315.481 141.043 316.534 142.27 317.832 142.27ZM317.832 143.369C319.652 143.369 321.126 141.65 321.126 139.53C321.126 137.41 319.652 135.691 317.832 135.691C316.013 135.691 314.538 137.41 314.538 139.53C314.538 141.65 316.013 143.369 317.832 143.369Z" fill="white"/>
<path d="M394.422 176.959C394.422 179.079 392.947 180.798 391.128 180.798C389.309 180.798 387.834 179.079 387.834 176.959C387.834 174.839 389.309 173.12 391.128 173.12C392.947 173.12 394.422 174.839 394.422 176.959Z" fill="#738F8C"/>
<path fill-rule="evenodd" clip-rule="evenodd" d="M391.128 179.699C392.426 179.699 393.479 178.472 393.479 176.959C393.479 175.446 392.426 174.219 391.128 174.219C389.829 174.219 388.777 175.446 388.777 176.959C388.777 178.472 389.829 179.699 391.128 179.699ZM391.128 180.798C392.947 180.798 394.422 179.079 394.422 176.959C394.422 174.839 392.947 173.12 391.128 173.12C389.309 173.12 387.834 174.839 387.834 176.959C387.834 179.079 389.309 180.798 391.128 180.798Z" fill="white"/>
<path d="M490.773 202.872C490.773 204.992 489.298 206.711 487.479 206.711C485.66 206.711 484.185 204.992 484.185 202.872C484.185 200.752 485.66 199.033 487.479 199.033C489.298 199.033 490.773 200.752 490.773 202.872Z" fill="#789186"/>
<path fill-rule="evenodd" clip-rule="evenodd" d="M487.479 205.612C488.777 205.612 489.83 204.385 489.83 202.872C489.83 201.359 488.777 200.132 487.479 200.132C486.18 200.132 485.128 201.359 485.128 202.872C485.128 204.385 486.18 205.612 487.479 205.612ZM487.479 206.711C489.298 206.711 490.773 204.992 490.773 202.872C490.773 200.752 489.298 199.033 487.479 199.033C485.66 199.033 484.185 200.752 484.185 202.872C484.185 204.992 485.66 206.711 487.479 206.711Z" fill="white"/>
<path d="M522.067 146.251C522.067 148.371 520.592 150.09 518.773 150.09C516.954 150.09 515.479 148.371 515.479 146.251C515.479 144.131 516.954 142.412 518.773 142.412C520.592 142.412 522.067 144.131 522.067 146.251Z" fill="#8CBABB"/>
<path fill-rule="evenodd" clip-rule="evenodd" d="M518.773 148.991C520.071 148.991 521.124 147.764 521.124 146.251C521.124 144.738 520.071 143.511 518.773 143.511C517.474 143.511 516.422 144.738 516.422 146.251C516.422 147.764 517.474 148.991 518.773 148.991ZM518.773 150.09C520.592 150.09 522.067 148.371 522.067 146.251C522.067 144.131 520.592 142.412 518.773 142.412C516.954 142.412 515.479 144.131 515.479 146.251C515.479 148.371 516.954 150.09 518.773 150.09Z" fill="white"/>
<path d="M575.595 189.437C575.595 191.557 574.12 193.276 572.301 193.276C570.482 193.276 569.007 191.557 569.007 189.437C569.007 187.317 570.482 185.598 572.301 185.598C574.12 185.598 575.595 187.317 575.595 189.437Z" fill="#414847"/>
<path fill-rule="evenodd" clip-rule="evenodd" d="M572.301 192.176C573.599 192.176 574.652 190.95 574.652 189.437C574.652 187.924 573.599 186.697 572.301 186.697C571.003 186.697 569.95 187.924 569.95 189.437C569.95 190.95 571.003 192.176 572.301 192.176ZM572.301 193.276C574.12 193.276 575.595 191.557 575.595 189.437C575.595 187.317 574.12 185.598 572.301 185.598C570.482 185.598 569.007 187.317 569.007 189.437C569.007 191.557 570.482 193.276 572.301 193.276Z" fill="white"/>
<path d="M675.246 175.039C675.246 177.159 673.771 178.877 671.952 178.877C670.133 178.877 668.658 177.159 668.658 175.039C668.658 172.918 670.133 171.2 671.952 171.2C673.771 171.2 675.246 172.918 675.246 175.039Z" fill="#577379"/>
<path fill-rule="evenodd" clip-rule="evenodd" d="M671.952 177.778C673.251 177.778 674.303 176.552 674.303 175.039C674.303 173.525 673.251 172.299 671.952 172.299C670.654 172.299 669.601 173.525 669.601 175.039C669.601 176.552 670.654 177.778 671.952 177.778ZM671.952 178.877C673.771 178.877 675.246 177.159 675.246 175.039C675.246 172.918 673.771 171.2 671.952 171.2C670.133 171.2 668.658 172.918 668.658 175.039C668.658 177.159 670.133 178.877 671.952 178.877Z" fill="white"/>
<path d="M802.497 123.215C802.497 125.335 801.023 127.054 799.203 127.054C797.384 127.054 795.909 125.335 795.909 123.215C795.909 121.095 797.384 119.376 799.203 119.376C801.023 119.376 802.497 121.095 802.497 123.215Z" fill="#3E403A"/>
<path fill-rule="evenodd" clip-rule="evenodd" d="M799.203 125.955C800.502 125.955 801.554 124.728 801.554 123.215C801.554 121.702 800.502 120.475 799.203 120.475C797.905 120.475 796.852 121.702 796.852 123.215C796.852 124.728 797.905 125.955 799.203 125.955ZM799.203 127.054C801.023 127.054 802.497 125.335 802.497 123.215C802.497 121.095 801.023 119.376 799.203 119.376C797.384 119.376 795.909 121.095 795.909 123.215C795.909 125.335 797.384 127.054 799.203 127.054Z" fill="white"/>
<path d="M861.948 153.51C861.948 155.63 860.473 157.349 858.654 157.349C856.834 157.349 855.36 155.63 855.36 153.51C855.36 151.39 856.834 149.671 858.654 149.671C860.473 149.671 861.948 151.39 861.948 153.51Z" fill="#181A19"/>
<path fill-rule="evenodd" clip-rule="evenodd" d="M858.654 156.249C859.952 156.249 861.005 155.023 861.005 153.51C861.005 151.997 859.952 150.77 858.654 150.77C857.355 150.77 856.303 151.997 856.303 153.51C856.303 155.023 857.355 156.249 858.654 156.249ZM858.654 157.349C860.473 157.349 861.948 155.63 861.948 153.51C861.948 151.39 860.473 149.671 858.654 149.671C856.834 149.671 855.36 151.39 855.36 153.51C855.36 155.63 856.834 157.349 858.654 157.349Z" fill="white"/>
</g>
<defs>
<filter id="filter0_d_62863_826" x="0.945801" y="0.0742188" width="891.755" height="256.024" filterUnits="userSpaceOnUse" color-interpolation-filters="sRGB">
<feFlood flood-opacity="0" result="BackgroundImageFix"/>
<feColorMatrix in="SourceAlpha" type="matrix" values="0 0 0 0 0 0 0 0 0 0 0 0 0 0 0 0 0 0 127 0" result="hardAlpha"/>
<feOffset dy="4"/>
<feGaussianBlur stdDeviation="2"/>
<feComposite in2="hardAlpha" operator="out"/>
<feColorMatrix type="matrix" values="0 0 0 0 0 0 0 0 0 0 0 0 0 0 0 0 0 0 0.25 0"/>
<feBlend mode="normal" in2="BackgroundImageFix" result="effect1_dropShadow_62863_826"/>
<feBlend mode="normal" in="SourceGraphic" in2="effect1_dropShadow_62863_826" result="shape"/>
</filter>
</defs>
</svg>
